<svg xmlns="http://www.w3.org/2000/svg" viewBox="0 0 512 512" role="img" aria-label="Comissões PRO">
  <defs>
    <linearGradient id="bg" x1="0" y1="0" x2="1" y2="1">
      <stop offset="0" stop-color="#123a78"/>
      <stop offset="0.55" stop-color="#071a38"/>
      <stop offset="1" stop-color="#020812"/>
    </linearGradient>
    <linearGradient id="bar" x1="0" y1="1" x2="0" y2="0">
      <stop offset="0" stop-color="#4d78b7"/>
      <stop offset="1" stop-color="#dceaff"/>
    </linearGradient>
    <filter id="shadow" x="-25%" y="-25%" width="150%" height="150%">
      <feDropShadow dx="0" dy="8" stdDeviation="8" flood-color="#000" flood-opacity="0.38"/>
    </filter>
  </defs>
  <rect width="512" height="512" rx="108" fill="url(#bg)"/>
  <rect x="10" y="10" width="492" height="492" rx="99" fill="none" stroke="#2a66b2" stroke-opacity="0.42" stroke-width="4"/>

  <g transform="translate(180 35) scale(6.35)" filter="url(#shadow)">
    <circle cx="12" cy="12" r="11.3" fill="#e60012" stroke="#fff" stroke-width="0.75"/>
    <path fill="#fff" d="M12 .804c-.1 0-.183.06-.218.147l-.492 1.551A9.523 9.523 0 002.475 12c0 1.48.337 2.885.94 4.136l-1.1 1.206a.241.241 0 00-.015.262.246.246 0 00.238.115l1.592-.353a9.52 9.52 0 007.87 4.16c3.27 0 6.16-1.652 7.874-4.16l1.592.353a.236.236 0 00.23-.123.234.234 0 00-.016-.262l-1.1-1.198A9.431 9.431 0 0021.526 12a9.523 9.523 0 00-8.815-9.498L12.218.947A.237.237 0 0012 .804zm-.003.25c.024 0 .048.02.056.043l1.02 3.354a1.2 1.2 0 00-.48.957c0 .389.19.734.48.952h-.004c.436.326.718.846.718 1.429v1.12l4.326-2.497.476.825-4.802 2.77v.965l.834.48 4.802-2.774.476.825-4.326 2.5.972.56c.508.294.818.798.882 1.338v-.004a1.193 1.193 0 001.655.953l2.393 2.56c.02.02.02.047.008.07-.016.025-.04.033-.068.029l-3.413-.794a1.193 1.193 0 00-1.65-.957l.003-.004c-.5.215-1.091.199-1.6-.095l-.968-.56v4.994h-.952v-5.545l-.834-.48-.833.48v5.545h-.953V15.1l-.972.555c-.508.294-1.1.31-1.6.096l.004.004a1.193 1.193 0 00-1.651.957l-3.413.793a.054.054 0 01-.063-.028c-.016-.02-.012-.047.008-.067l2.397-2.56c.333.143.73.135 1.067-.064.338-.194.544-.528.588-.889v.004c.063-.54.373-1.044.88-1.337l.97-.56-4.327-2.496.477-.826 4.802 2.774.833-.484v-.964l-4.802-2.77.476-.826 4.326 2.496V7.79c0-.583.282-1.103.719-1.429h-.004c.29-.214.476-.56.476-.952 0-.393-.19-.738-.48-.957l1.02-3.353c.008-.028.031-.044.051-.044z"/>
  </g>

  <g transform="translate(66 172)" filter="url(#shadow)">
    <line x1="0" y1="164" x2="378" y2="164" stroke="#5b7194" stroke-width="5" stroke-linecap="round"/>
    <rect x="26" y="103" width="54" height="61" rx="8" fill="url(#bar)"/>
    <rect x="107" y="76" width="54" height="88" rx="8" fill="url(#bar)"/>
    <rect x="188" y="43" width="54" height="121" rx="8" fill="url(#bar)"/>
    <rect x="269" y="8" width="54" height="156" rx="8" fill="url(#bar)"/>
    <path d="M14 123 L112 82 L191 93 L314 22" fill="none" stroke="#1e8cff" stroke-width="16" stroke-linecap="round" stroke-linejoin="round"/>
    <path d="M302 10 L353 7 L330 53 Z" fill="#1e8cff"/>
  </g>

  <text x="256" y="405" text-anchor="middle" font-family="Arial,Helvetica,sans-serif" font-size="56" font-weight="900" letter-spacing="1.5" fill="#fff">COMISSÕES</text>
  <text x="256" y="462" text-anchor="middle" font-family="Arial,Helvetica,sans-serif" font-size="47" font-weight="900" letter-spacing="2" fill="#ff1d35">PRO</text>
</svg>