<svg xmlns="http://www.w3.org/2000/svg" viewBox="0 0 512 512" role="img" aria-label="Comissões PRO">
  <defs>
    <linearGradient id="bg" x1="0" y1="0" x2="1" y2="1">
      <stop offset="0" stop-color="#0b2f68"/>
      <stop offset="0.55" stop-color="#071a38"/>
      <stop offset="1" stop-color="#020812"/>
    </linearGradient>
    <linearGradient id="bars" x1="0" y1="1" x2="0" y2="0">
      <stop offset="0" stop-color="#8a97aa"/>
      <stop offset="1" stop-color="#ffffff"/>
    </linearGradient>
    <filter id="shadow" x="-30%" y="-30%" width="160%" height="160%">
      <feDropShadow dx="0" dy="10" stdDeviation="10" flood-color="#000" flood-opacity="0.4"/>
    </filter>
  </defs>

  <rect width="512" height="512" rx="112" fill="url(#bg)"/>
  <rect x="12" y="12" width="488" height="488" rx="102" fill="none" stroke="#1d5aa7" stroke-opacity="0.45" stroke-width="4"/>

  <g transform="translate(170 44) scale(7.16)" fill="#fff" filter="url(#shadow)">
    <circle cx="12" cy="12" r="11.2" fill="#e60012" stroke="#fff" stroke-width="0.8"/>
    <path d="M12 .804c-.1 0-.183.06-.218.147l-.492 1.551A9.523 9.523 0 002.475 12c0 1.48.337 2.885.94 4.136l-1.1 1.206a.241.241 0 00-.015.262.246.246 0 00.238.115l1.592-.353a9.52 9.52 0 007.87 4.16c3.27 0 6.16-1.652 7.874-4.16l1.592.353a.236.236 0 00.23-.123.234.234 0 00-.016-.262l-1.1-1.198A9.431 9.431 0 0021.526 12a9.523 9.523 0 00-8.815-9.498L12.218.947A.237.237 0 0012 .804zm-.003.25c.024 0 .048.02.056.043l1.02 3.354a1.2 1.2 0 00-.48.957c0 .389.19.734.48.952h-.004c.436.326.718.846.718 1.429v1.12l4.326-2.497.476.825-4.802 2.77v.965l.834.48 4.802-2.774.476.825-4.326 2.5.972.56c.508.294.818.798.882 1.338v-.004a1.193 1.193 0 001.655.953l2.393 2.56c.02.02.02.047.008.07-.016.025-.04.033-.068.029l-3.413-.794a1.193 1.193 0 00-1.65-.957l.003-.004c-.5.215-1.091.199-1.6-.095l-.968-.56v4.994h-.952v-5.545l-.834-.48-.833.48v5.545h-.953V15.1l-.972.555c-.508.294-1.1.31-1.6.096l.004.004a1.193 1.193 0 00-1.651.957l-3.413.793a.054.054 0 01-.063-.028c-.016-.02-.012-.047.008-.067l2.397-2.56c.333.143.73.135 1.067-.064.338-.194.544-.528.588-.889v.004c.063-.54.373-1.044.88-1.337l.97-.56-4.327-2.496.477-.826 4.802 2.774.833-.484v-.964l-4.802-2.77.476-.826 4.326 2.496V7.79c0-.583.282-1.103.719-1.429h-.004c.29-.214.476-.56.476-.952 0-.393-.19-.738-.48-.957l1.02-3.353c.008-.028.031-.044.051-.044z"/>
  </g>

  <g filter="url(#shadow)">
    <rect x="88" y="272" width="48" height="74" rx="8" fill="url(#bars)" opacity="0.72"/>
    <rect x="154" y="240" width="48" height="106" rx="8" fill="url(#bars)" opacity="0.82"/>
    <rect x="220" y="204" width="48" height="142" rx="8" fill="url(#bars)" opacity="0.9"/>
    <rect x="286" y="164" width="48" height="182" rx="8" fill="url(#bars)"/>
    <path d="M78 276 L166 220 L234 239 L344 126" fill="none" stroke="#1688ff" stroke-width="18" stroke-linecap="round" stroke-linejoin="round"/>
    <path d="M338 111 L383 113 L368 156 Z" fill="#1688ff"/>
  </g>

  <text x="256" y="405" text-anchor="middle" font-family="Arial,Helvetica,sans-serif" font-size="57" font-weight="900" letter-spacing="1" fill="#fff">COMISSÕES</text>
  <line x1="92" y1="447" x2="181" y2="447" stroke="#e60012" stroke-width="7" stroke-linecap="round"/>
  <text x="256" y="464" text-anchor="middle" font-family="Arial,Helvetica,sans-serif" font-size="48" font-weight="900" fill="#ff1b2d">PRO</text>
  <line x1="331" y1="447" x2="420" y2="447" stroke="#e60012" stroke-width="7" stroke-linecap="round"/>
</svg>