<svg xmlns="http://www.w3.org/2000/svg" viewBox="0 0 512 512" role="img" aria-label="Controle de Vendas PRO">
  <defs>
    <linearGradient id="bg" x1="0" y1="0" x2="1" y2="1"><stop offset="0" stop-color="#123a78"/><stop offset="0.55" stop-color="#071a38"/><stop offset="1" stop-color="#020812"/></linearGradient>
    <linearGradient id="bar" x1="0" y1="1" x2="0" y2="0"><stop offset="0" stop-color="#1265e8"/><stop offset="1" stop-color="#53d7ff"/></linearGradient>
    <filter id="shadow" x="-25%" y="-25%" width="150%" height="150%"><feDropShadow dx="0" dy="7" stdDeviation="7" flood-color="#000" flood-opacity="0.42"/></filter>
  </defs>
  <rect width="512" height="512" rx="108" fill="url(#bg)"/>
  <rect x="10" y="10" width="492" height="492" rx="99" fill="none" stroke="#2a66b2" stroke-opacity="0.45" stroke-width="4"/>
  <g transform="translate(62 55)" filter="url(#shadow)">
    <line x1="0" y1="185" x2="388" y2="185" stroke="#286edb" stroke-width="5" stroke-linecap="round"/>
    <rect x="35" y="130" width="51" height="55" rx="7" fill="url(#bar)"/>
    <rect x="113" y="103" width="51" height="82" rx="7" fill="url(#bar)"/>
    <rect x="191" y="72" width="51" height="113" rx="7" fill="url(#bar)"/>
    <rect x="269" y="41" width="51" height="144" rx="7" fill="url(#bar)"/>
    <path d="M13 162 C100 157 188 129 316 52" fill="none" stroke="#22b8ff" stroke-width="17" stroke-linecap="round"/>
    <path d="M304 38 L359 41 L330 89 Z" fill="#22b8ff"/>
  </g>
  <text x="256" y="335" text-anchor="middle" font-family="Arial,sans-serif" font-size="43" font-weight="900" font-style="italic" fill="#fff">CONTROLE</text>
  <text x="210" y="382" text-anchor="middle" font-family="Arial,sans-serif" font-size="25" font-weight="900" font-style="italic" fill="#ff1d35">DE</text>
  <text x="286" y="382" text-anchor="start" font-family="Arial,sans-serif" font-size="43" font-weight="900" font-style="italic" fill="#fff">VENDAS</text>
  <text x="256" y="454" text-anchor="middle" font-family="Arial,sans-serif" font-size="63" font-weight="900" font-style="italic" fill="#ff1d35">PRO</text>
</svg>