<svg xmlns="http://www.w3.org/2000/svg" viewBox="0 0 512 512" role="img" aria-label="Controle de Vendas PRO">
  <defs>
    <linearGradient id="bg" x1="0" y1="0" x2="1" y2="1"><stop offset="0" stop-color="#123a78"/><stop offset="0.55" stop-color="#071a38"/><stop offset="1" stop-color="#020812"/></linearGradient>
    <linearGradient id="bar" x1="0" y1="1" x2="0" y2="0"><stop offset="0" stop-color="#1265e8"/><stop offset="1" stop-color="#53d7ff"/></linearGradient>
    <filter id="shadow" x="-25%" y="-25%" width="150%" height="150%"><feDropShadow dx="0" dy="7" stdDeviation="7" flood-color="#000" flood-opacity="0.42"/></filter>
  </defs>
  <rect width="512" height="512" rx="108" fill="url(#bg)"/>
  <rect x="10" y="10" width="492" height="492" rx="99" fill="none" stroke="#2a66b2" stroke-opacity="0.45" stroke-width="4"/>
  <g transform="translate(190 24) scale(5.55)" filter="url(#shadow)">
    <circle cx="12" cy="12" r="11.3" fill="#e60012" stroke="#fff" stroke-width="0.75"/>
    <path fill="#fff" d="M12 .804c-.1 0-.183.06-.218.147l-.492 1.551A9.523 9.523 0 002.475 12c0 1.48.337 2.885.94 4.136l-1.1 1.206a.241.241 0 00-.015.262.246.246 0 00.238.115l1.592-.353a9.52 9.52 0 007.87 4.16c3.27 0 6.16-1.652 7.874-4.16l1.592.353a.236.236 0 00.23-.123.234.234 0 00-.016-.262l-1.1-1.198A9.431 9.431 0 0021.526 12a9.523 9.523 0 00-8.815-9.498L12.218.947A.237.237 0 0012 .804z"/>
  </g>
  <text x="256" y="148" text-anchor="middle" font-family="Arial,sans-serif" font-size="47" font-weight="900" fill="#fff">YAMAHA</text>
  <g transform="translate(62 160)" filter="url(#shadow)">
    <line x1="0" y1="151" x2="388" y2="151" stroke="#286edb" stroke-width="5" stroke-linecap="round"/>
    <rect x="35" y="96" width="51" height="55" rx="7" fill="url(#bar)"/><rect x="113" y="69" width="51" height="82" rx="7" fill="url(#bar)"/><rect x="191" y="38" width="51" height="113" rx="7" fill="url(#bar)"/><rect x="269" y="7" width="51" height="144" rx="7" fill="url(#bar)"/>
    <path d="M13 128 C100 123 188 95 316 18" fill="none" stroke="#22b8ff" stroke-width="17" stroke-linecap="round"/>
    <path d="M304 4 L359 7 L330 55 Z" fill="#22b8ff"/>
  </g>
  <text x="256" y="365" text-anchor="middle" font-family="Arial,sans-serif" font-size="43" font-weight="900" font-style="italic" fill="#fff">CONTROLE</text>
  <text x="256" y="411" text-anchor="middle" font-family="Arial,sans-serif" font-size="25" font-weight="900" font-style="italic" fill="#ff1d35">DE</text>
  <text x="286" y="411" text-anchor="start" font-family="Arial,sans-serif" font-size="43" font-weight="900" font-style="italic" fill="#fff">VENDAS</text>
  <text x="256" y="474" text-anchor="middle" font-family="Arial,sans-serif" font-size="63" font-weight="900" font-style="italic" fill="#ff1d35">PRO</text>
</svg>
