<svg xmlns="http://www.w3.org/2000/svg" viewBox="0 0 256 256" role="img" aria-label="Emblema Yamaha">
  <circle cx="128" cy="128" r="112" fill="#e21d2d"/>
  <circle cx="128" cy="128" r="94" fill="none" stroke="#fff" stroke-width="8"/>
  <g fill="none" stroke="#fff" stroke-width="10" stroke-linecap="round" stroke-linejoin="round">
    <path d="M128 48v100m0-100l-12 18m12-18l12 18M128 148l-38 50m38-50l38 50"/>
    <path d="M62 92l86 50m-86-50l22-1m-22 1l11 19m75 31l58 5m-58-5l22-1m-22 1l11 19" transform="rotate(120 128 128)"/>
    <path d="M62 92l86 50m-86-50l22-1m-22 1l11 19m75 31l58 5m-58-5l22-1m-22 1l11 19" transform="rotate(240 128 128)"/>
  </g>
  <circle cx="128" cy="128" r="14" fill="#fff"/>
</svg>